<svg width="249" height="212" viewBox="0 0 249 212" fill="none" xmlns="http://www.w3.org/2000/svg">
<path d="M121.903 50.7866L127.283 50.9293C127.283 50.9293 131.852 38.516 139.121 26.0533C146.389 13.5906 170.724 -1.07333 182.616 0.518674C194.508 2.11067 189.92 14.7667 188.004 17.5693C186.087 20.372 177.779 23.448 175.321 26.9467C172.864 30.4453 170.424 33.7 161.612 36.9853C152.799 40.2707 150.829 43.8039 150.829 43.8039L141.957 58.112C141.957 58.112 164.761 68.0867 180.752 87.616C196.741 107.144 199.369 138.697 199.369 138.697C199.369 138.697 204.865 147.425 209.48 148.003C214.093 148.58 230.357 147.301 235.111 149.359C239.863 151.416 240.419 153.907 245.205 155.477C249.993 157.047 252.08 162.097 240.148 167.853C228.217 173.611 216.709 170.085 211.157 165.52C205.607 160.955 192.833 147.783 192.833 147.783L188.531 149.679C188.531 149.679 194.549 161.383 194.687 162.864C194.825 164.344 188.749 163.661 184.64 162.875C180.531 162.088 172.856 156.389 172.856 156.389L165.403 157.813C165.403 157.813 162.524 167.161 167.12 167.983C171.716 168.804 183.54 167.941 187.891 172.175C192.241 176.409 190.827 182.433 190.827 182.433C190.827 182.433 197.233 185.344 197.16 189.749C197.088 194.155 193.113 201.709 190.412 205.191C187.712 208.672 181.475 213.613 174.408 209.673C167.34 205.733 163.185 195.388 151.979 184.289C140.772 173.191 137.78 167.095 139.645 165.024C141.509 162.952 148.251 157.803 148.251 157.803C148.251 157.803 125.653 151.764 117.003 145.995C108.352 140.227 98.0307 133.847 92.9693 125.887C87.9067 117.925 84.412 108.608 84.412 108.608L82.348 96.452L68.132 79.5013C68.132 79.5013 59.84 85.7653 45.8053 86.7133C31.7693 87.6627 29.2467 85.276 29.2467 85.276C29.2467 85.276 19.4067 89.2226 10.9627 87.3893C2.51868 85.5546 -0.94532 82.6107 0.660014 77.336C2.26535 72.06 20.536 63.3307 41.224 61.8813C61.9107 60.4307 84.364 75.28 84.364 75.28L89.66 69.7813C89.66 69.7813 82.2306 60.6693 78.9093 52.344C75.5893 44.0187 76.628 29.4573 77.3786 25.836C77.664 24.4587 78.7733 25.424 78.7733 25.424C79.1946 24.8427 77.6613 23.7 77.78 22.624C78.1773 19.0547 84.42 16.3733 85.2187 15.8C86.7693 14.6853 97.512 15.2146 101.116 16.2093C104.72 17.2053 105.412 24.6053 107.952 26.748C110.493 28.892 117.352 32.3266 118.219 37.2893C119.087 42.252 121.903 50.7866 121.903 50.7866Z" fill="#152138"/>
</svg>
