<svg width="230" height="200" viewBox="0 0 230 200" fill="none" xmlns="http://www.w3.org/2000/svg">
<g clip-path="url(#clip0_1_6)">
<path d="M176.78 48.3827C176.78 48.3827 185.311 32.9107 187.835 29.4414C190.359 25.9707 195.092 21.1547 200.571 21.808C206.051 22.46 207.616 24.2867 207.616 24.2867C207.616 24.2867 213.225 21.2854 217.269 22.5907C221.315 23.8947 223.923 25.852 223.923 25.852C223.923 25.852 227.707 25.7213 228.88 27.4173C230.055 29.1133 229.533 37.5933 229.011 41.376C228.489 45.16 226.401 44.8987 226.401 44.8987C226.401 44.8987 225.097 49.856 222.619 52.0734C220.14 54.292 215.701 54.492 213.484 57.1013C211.265 59.7107 203.243 72.2987 199.329 73.9947C202.851 78.5613 201.416 86.388 200.241 95.7813C199.068 105.175 196.459 114.697 196.459 114.697C196.459 114.697 200.372 114.307 201.416 115.611C202.46 116.916 204.025 122.916 203.764 124.483C203.504 126.048 200.503 125.395 200.503 125.395C200.503 125.395 200.633 128.657 199.851 129.569C199.068 130.483 197.111 129.309 197.111 129.309C197.111 129.309 196.72 132.048 195.545 132.048C194.372 132.048 193.067 131.005 193.067 131.005C193.067 131.005 191.632 134.136 190.457 134.267C189.284 134.397 187.065 132.179 187.065 132.179C187.065 132.179 175.977 131.396 172.976 126.048C169.976 120.699 171.541 106.088 171.541 106.088L162.409 109.74C162.409 109.74 156.408 119.264 148.711 123.177C141.015 127.091 138.405 126.7 138.405 126.7C138.405 126.7 139.448 143.66 140.231 155.271C141.015 166.881 137.623 176.665 137.623 176.665C137.623 176.665 141.797 180.448 142.319 182.927C142.84 185.405 143.623 188.276 143.623 188.276C143.623 188.276 143.884 191.276 143.232 192.972C142.58 194.668 141.797 197.539 139.319 193.495C137.361 200.017 134.491 198.191 133.056 195.973C130.056 200.8 129.273 200.408 127.447 197.669C123.532 200.539 120.793 196.625 120.793 196.625C120.793 196.625 120.141 199.104 118.053 199.104C115.967 199.104 113.488 196.104 113.488 196.104C113.488 196.104 111.661 197.539 109.183 194.146C106.704 190.755 104.095 187.232 104.355 185.405C104.616 183.58 106.835 181.753 106.835 181.753C106.835 181.753 105.139 168.447 105.399 160.097C105.66 151.748 107.095 139.876 107.095 139.876C107.095 139.876 101.616 137.919 100.441 136.484C99.268 135.049 97.9627 134.657 97.9627 134.657L92.3533 134.397C92.3533 134.397 83.0907 138.441 73.5667 135.832C64.044 133.223 60.1307 130.092 60.1307 130.092C60.1307 130.092 39.5177 126.048 34.0385 121.612C36.5172 128.396 37.3 132.309 40.3005 136.093C43.3011 139.876 39.9088 143.007 37.9521 144.703C35.9953 146.399 33.1251 143.66 33.1251 143.66C33.1251 143.66 31.2989 147.181 29.4724 147.312C27.6459 147.443 25.6891 144.964 25.6891 144.964C25.6891 144.964 25.2979 147.704 22.4276 147.443C19.5579 147.181 18.2531 144.312 18.2531 144.312C18.2531 144.312 15.9047 147.051 14.0787 146.529C12.2521 146.008 10.6864 142.747 10.6864 142.747C10.6864 142.747 8.72973 146.139 5.99013 145.095C3.25053 144.051 3.11973 136.223 3.90266 132.701C4.68546 129.179 6.64212 130.352 6.64212 130.352C6.64212 130.352 3.77239 118.351 5.20732 112.349C6.64212 106.348 8.59893 101.26 8.59893 101.26C8.59893 101.26 -0.79374 91.6067 0.119327 85.736C0.461994 83.5347 1.79479 81.4067 3.32759 79.6067C6.87705 75.4374 9.19839 70.372 9.81199 64.9293C10.6527 57.4707 12.2547 47.5893 15.1219 42.6853C20.0797 34.2053 28.4287 21.1587 36.2563 12.1573C44.0839 3.156 51.9107 6.94002 51.9107 6.94002C51.9107 6.94002 53.7373 0.677345 63.9133 1.06935C74.0893 1.46001 112.052 -1.40931 122.489 5.11336C132.925 11.636 143.753 17.6373 150.407 21.42C157.06 25.204 176.017 40.6427 176.78 48.3827Z" fill="white"/>
</g>
<defs>
<clipPath id="clip0_1_6">
<rect width="230" height="200" fill="white"/>
</clipPath>
</defs>
</svg>
