<svg width="264" height="175" viewBox="0 0 264 175" fill="none" xmlns="http://www.w3.org/2000/svg">
<path d="M35.3152 104.342C42.6844 99.7235 48.4131 91.2581 48.4131 91.2581C48.4131 91.2581 35.9059 91.2275 34.36 89.7155C32.8136 88.2035 52.1158 78.3314 64.7622 66.2994C77.4084 54.2688 99.2511 30.5714 132.228 20.6821C165.206 10.7928 195.07 25.0075 195.07 25.0075C195.07 25.0075 197.007 26.1875 199.464 24.6475C201.92 23.1088 216.531 8.47814 226.958 3.82481C237.386 -0.828522 251.168 -0.399225 254.051 0.787441C256.934 1.97544 261.086 4.50481 262.28 8.46081C263.476 12.4155 263.167 16.9715 262.884 17.7475C262.6 18.5248 258.652 18.7755 258.652 18.7755C258.652 18.7755 259.968 21.2861 258.282 24.0541C256.595 26.8208 251.427 34.6795 248.066 38.3248C244.706 41.9701 236.439 47.7501 231.214 47.6035C225.99 47.4555 222.304 49.7648 222.304 49.7648C222.304 49.7648 231.62 53.1648 237.563 62.1008C243.504 71.0355 246.1 89.5088 243.587 107.335C241.074 125.163 236.107 128.019 236.107 128.019C236.107 128.019 236.002 143.138 229.66 151.989C223.316 160.839 221.466 155.157 221.29 148.595C221.112 142.035 219.374 128.07 217.611 125.667C215.85 123.266 213.722 117.414 214.038 111.913C214.354 106.411 216.107 101.977 213.804 97.3461C211.502 92.7168 210.415 89.2075 212.446 84.9408C214.476 80.6741 214.292 75.0581 212.638 73.1021C210.984 71.1448 208.722 68.6275 208.722 68.6275C208.722 68.6275 202.556 84.0395 186.236 88.7075C190.539 101.578 175.655 123.822 173.976 133.427C172.298 143.033 166.507 144.438 160.676 151.513C154.847 158.589 143.928 169.965 136.463 172.247C128.999 174.53 125.104 175.003 124.402 172.109C123.699 169.213 127.619 164.959 126.484 160.282C125.35 155.605 132.482 145.147 136.975 138.397C141.468 131.646 138.167 126.787 138.976 122.346C139.784 117.903 146.686 100.663 146.686 100.663C146.686 100.663 127.692 105.981 102.232 106.026C96.2964 106.038 91.2324 105.631 86.9391 105.006C83.6871 110.046 79.8044 115.427 75.8458 119.451C65.8226 129.642 58.7683 132.075 55.8116 132.441C52.8548 132.806 48.8344 140.106 46.5335 139.306C44.9174 138.745 60.7048 114.619 70.2516 100.301C68.1226 99.2634 67.1522 98.5021 67.1522 98.5021C67.1522 98.5021 46.5959 112.925 40.5824 114.385C34.5688 115.843 31.6928 113.711 31.6928 113.711C31.6928 113.711 23.4059 122.326 18.7288 123.461C14.0511 124.597 1.72097 131.126 0.0668413 129.169C-1.58743 127.213 27.9455 108.961 35.3152 104.342Z" fill="#152138"/>
</svg>
